<svg xmlns="http://www.w3.org/2000/svg" width="128" height="128" xml:space="preserve"><path fill="#282D33" d="M61.313 128H58c-12.062 0-21.874-9.72-21.874-21.666V83.391h4v22.943C40.126 116.075 48.144 124 58 124h3.313c9.856 0 17.874-7.925 17.874-17.666V44.06h4v62.274c0 11.946-9.813 21.666-21.874 21.666z"/><path fill="#282D33" d="M108.167 78.775h-4V42.296c0-5.152-4.247-9.344-9.468-9.344h-1.91c-5.221 0-9.468 4.191-9.468 9.344v35.929h-4V42.296c0-7.358 6.042-13.344 13.468-13.344h1.91c7.426 0 13.468 5.986 13.468 13.344v36.479z"/><path fill="#282D33" d="M106.44 105.876c-8.181 0-14.836-6.595-14.836-14.701 0-8.105 6.655-14.7 14.836-14.7 8.18 0 14.834 6.595 14.834 14.7 0 8.106-6.654 14.701-14.834 14.701zm0-25.401c-5.975 0-10.836 4.8-10.836 10.7s4.861 10.701 10.836 10.701c5.974 0 10.834-4.801 10.834-10.701s-4.86-10.7-10.834-10.7z"/><path fill="#282D33" d="M106.44 97.727c-3.64 0-6.602-2.939-6.602-6.552s2.962-6.552 6.602-6.552 6.601 2.939 6.601 6.552-2.961 6.552-6.601 6.552zm0-9.104c-1.435 0-2.602 1.145-2.602 2.552s1.167 2.552 2.602 2.552c1.434 0 2.601-1.145 2.601-2.552s-1.167-2.552-2.601-2.552zM10.726 41.361h-4V14.714C6.726 6.601 13.387 0 21.574 0v4c-5.981 0-10.849 4.806-10.849 10.714v26.647zM70.528 41.566h-4V14.918c0-5.908-4.867-10.714-10.85-10.714v-4c8.188 0 14.85 6.601 14.85 14.714v26.648z"/><path fill="#282D33" d="M45.165 86.486H31.913c-13.889 0-25.188-11.189-25.188-24.942V41.33h4v20.214c0 11.548 9.505 20.942 21.188 20.942h13.252c11.683 0 21.188-9.395 21.188-20.942V41.33h4v20.214c0 13.753-11.299 24.942-25.188 24.942z"/></svg>